<svg id="SvgjsSvg1001" width="288" height="288" xmlns="http://www.w3.org/2000/svg" version="1.1" xmlns:xlink="http://www.w3.org/1999/xlink" xmlns:svgjs="http://svgjs.com/svgjs"><defs id="SvgjsDefs1002"></defs><g id="SvgjsG1008" transform="matrix(1,0,0,1,0,0)"><svg xmlns="http://www.w3.org/2000/svg" enable-background="new 0 0 125 75" viewBox="0 0 125 75" width="288" height="288"><path fill="#767fad" d="M17.7 46.5c-4.7 0-8.6-3.8-8.6-8.6 0-4.7 3.8-8.6 8.6-8.6 4.7 0 8.6 3.8 8.6 8.6C26.3 42.7 22.5 46.5 17.7 46.5M17.7 21.2C8.5 21.2 1 28.7 1 38s7.5 16.7 16.7 16.7c9.2 0 16.7-7.5 16.7-16.7S27 21.2 17.7 21.2M62.5 46.5h-5.3V29.4h5.3c4.7 0 8.6 3.8 8.6 8.6C71.1 42.7 67.3 46.5 62.5 46.5M62.5 21.2H49.1v33.5h13.5c9.2 0 16.7-7.5 16.7-16.7S71.8 21.2 62.5 21.2M107.3 46.5H102V29.4h5.3c4.7 0 8.6 3.8 8.6 8.6C115.8 42.7 112 46.5 107.3 46.5M107.3 21.2H93.8v33.5h13.5c9.2 0 16.7-7.5 16.7-16.7S116.5 21.2 107.3 21.2" class="color111 svgShape"></path></svg></g></svg>